<mxfile host="app.diagrams.net" modified="2022-10-13T06:25:36.150Z" agent="5.0 (Macintosh; Intel Mac OS X 10_15_7) AppleWebKit/537.36 (KHTML, like Gecko) Chrome/105.0.0.0 Safari/537.36" etag="wLcmneGMjhhvk-rlgaZH" version="20.4.0" type="github">
  <diagram id="3228e29e-7158-1315-38df-8450db1d8a1d" name="Page-1">
    <mxGraphModel dx="2360" dy="895" grid="0" gridSize="10" guides="1" tooltips="1" connect="1" arrows="1" fold="1" page="1" pageScale="1" pageWidth="900" pageHeight="250" background="#EFF1F3" math="0" shadow="0">
      <root>
        <mxCell id="0" />
        <mxCell id="1" parent="0" />
        <mxCell id="T-5VQnCJckOgUX1Wp16H-28" value="&lt;span style=&quot;font-size: 30px;&quot;&gt;&lt;font color=&quot;#f19c99&quot;&gt;对称秘钥&lt;/font&gt;&lt;/span&gt;" style="text;html=1;strokeColor=none;fillColor=none;align=center;verticalAlign=middle;whiteSpace=wrap;rounded=0;fontSize=22;" parent="1" vertex="1">
          <mxGeometry x="680.99" y="691" width="135.26" height="20" as="geometry" />
        </mxCell>
        <mxCell id="TGPx2V8O0Z7DVdudsgvW-26" value="&lt;font style=&quot;font-size: 21px;&quot;&gt;client random&lt;/font&gt;" style="text;html=1;strokeColor=none;fillColor=none;align=center;verticalAlign=middle;whiteSpace=wrap;rounded=0;fontColor=#4A919B;" parent="1" vertex="1">
          <mxGeometry x="112" y="548" width="230" height="30" as="geometry" />
        </mxCell>
        <mxCell id="TGPx2V8O0Z7DVdudsgvW-27" value="" style="shape=image;verticalLabelPosition=bottom;verticalAlign=top;imageAspect=0;aspect=fixed;image=data:image/svg+xml,PHN2ZyB4bWxuczp4bGluaz0iaHR0cDovL3d3dy53My5vcmcvMTk5OS94bGluayIgeG1sbnM9Imh0dHA6Ly93d3cudzMub3JnLzIwMDAvc3ZnIiBoZWlnaHQ9IjIwMCIgd2lkdGg9IjIwMCIgdmVyc2lvbj0iMS4xIiB2aWV3Qm94PSIwIDAgMTAyNCAxMDI0IiBjbGFzcz0iaWNvbiI+PHBhdGggZmlsbD0iIzRBOTE5QiIgZD0iTTQyMS4zNzYgNDgxLjI4czExNy4yNDggMjQuNTc2IDE3NS4xMDQtOC43MDRjMCAwLTg5LjYgNzAuMTQ0LTg5LjYgMTY2LjQgMC41MTItMC41MTItOC4xOTItMTIxLjM0NC04NS41MDQtMTU3LjY5NnpNNDM4Ljc4NCA5NjkuMjE2czY4LjYwOCA2LjY1NiA2OC42MDgtODAuODk2YzAgMCAzLjA3MiA4OC41NzYgNjUuMDI0IDc4LjMzNiAwIDAuNTEyLTUwLjY4OCAyMi4wMTYtMTMzLjYzMiAyLjU2ek0xNjEuMjggMjM4LjA4cy0zMC4yMDggNjUuNTM2IDExLjI2NCA5MS42NDhjMCAwLTY3LjA3Mi0xNy40MDgtODEuNDA4IDM3LjM3NiAwIDAgOC43MDQtODIuOTQ0IDcwLjE0NC0xMjkuMDI0ek04NTcuNiAyMjcuMzI4czQ5LjE1MiA1MC4xNzYgMS4wMjQgODEuNDA4YzAgMCA1OC44OC0xOC40MzIgNjYuNTYgMzYuMzUyIDAgMCA1LjEyLTY5LjYzMi02Ny41ODQtMTE3Ljc2eiIvPjxwYXRoIGZpbGw9IiM0QTkxOUIiIGQ9Ik00NDMuMzkyIDk3MC43NTJjLTUuNjMyIDAtMTAuNzUyLTEuMDI0LTE1LjM2LTMuMDcybC0yNzAuODQ4LTE1Ny4xODQtMS41MzYtMS4wMjRzLTEuMDI0LTEuMDI0LTQuNjA4LTIuNTZjLTUxLjItMjkuMTg0LTYyLjk3Ni05NC4yMDgtNjUuNTM2LTEyMC44MzJWMzg2LjU2YzAtMy4wNzIgMC41MTItNy4xNjggMS4wMjQtMTEuMjY0bDAuNTEyLTMuNTg0IDEuMDI0LTIuNTZjMTkuNDU2LTUwLjY4OCA3Ni44LTUxLjIgMTAzLjkzNi00NC4wMzJsLTEuNTM2IDUuNjMyIDQuMDk2LTYuMTQ0TDQ3Ni4xNiA0ODYuNGwxOC45NDQgMzcuODg4YzIwLjk5MiAzNi44NjQgMjkuMTg0IDc3LjgyNCAzMi43NjggOTkuODR2MjU4LjA0OGMtNC42MDggNTYuMzItMzYuODY0IDc2LjI4OC01NS44MDggODIuOTQ0LTEuMDI0IDAuNTEyLTE1LjM2IDUuNjMyLTI4LjY3MiA1LjYzMnogbS0yNjIuMTQ0LTE5Ni4wOTZsMjYzLjE2OCAxNTIuNTc2YzEyLjI4OC0wLjUxMiAzNi44NjQtNi42NTYgNDAuNDQ4LTQ4LjEyOHYtMjUwLjM2OGMtNC42MDgtMzEuNzQ0LTIwLjk5Mi0xMDMuOTM2LTcyLjE5Mi0xMjhMMzIyLjU2IDQ0NS40NGwxLjUzNiAzLjA3Mi0xNDIuMzM2LTgyLjQzMmMtMi4wNDgtMC41MTItNDAuNDQ4LTkuMjE2LTUyLjczNiAxNS44NzItMC41MTIgMi41Ni0wLjUxMiA0LjYwOC0wLjUxMiA2LjE0NHYyOTQuNGMxLjUzNiAxNi44OTYgOS43MjggNjcuMDcyIDQzLjUyIDg2LjUyOCAzLjU4NCAyLjA0OCA2LjY1NiA0LjA5NiA5LjIxNiA1LjYzMnoiLz48cGF0aCBmaWxsPSIjNEE5MTlCIiBkPSJNODM3LjYzMiAyMTIuOTkyYzYuNjU2IDQuMDk2IDEyLjggNy4xNjggMTguNDMyIDEwLjc1MmwxLjUzNiAxLjAyNCAxLjUzNiAxLjUzNmM1LjEyIDQuMDk2IDEwLjc1MiA5LjIxNiAxNi4zODQgMTUuMzYgNi4xNDQgMTEuNzc2IDUuNjMyIDMzLjI4IDQuNjA4IDQ5LjE1Mi0xLjAyNCAxMi4yODgtNi42NTYgMzAuMjA4LTI2LjYyNCA0NC41NDRsLTEuMDI0IDAuNTEyLTI0Ny44MDggMTU2LjY3MmMtMjYuNjI0IDE0LjMzNi02Mi45NzYgMTguNDMyLTk2LjI1NiAxOC40MzItNDAuOTYgMC03Ny44MjQtNi42NTYtODkuMDg4LTguNzA0bC0zLjA3Mi0wLjUxMi0yNDUuMjQ4LTE0Mi4zMzZjLTM5LjQyNC0yOS42OTYtMjguMTYtODUuNTA0LTE1LjM2LTExMy42NjRsMi41Ni02LjE0NCAyNjMuNjgtMTY2LjkxMmMyOS4xODQtMTQuMzM2IDEwNC40NDgtNDMuMDA4IDE3My4wNTYtMS4wMjQgMy41ODQgMi41NiA1OC4zNjggMzQuMzA0IDExOS4yOTYgNjkuNjMyTTQzMS42MTYgNDYwLjhjNDAuNDQ4IDcuMTY4IDExNC4xNzYgMTMuODI0IDE1Mi41NzYtNi4xNDRsMjQ0LjczNi0xNTUuMTM2YzcuMTY4LTUuNjMyIDguMTkyLTEwLjI0IDguNzA0LTEyLjggMS4wMjQtMTEuMjY0LTkuNzI4LTI2LjYyNC0xNS4zNi0zMi43NjgtNTUuODA4LTMyLjI1Ni0yNDMuNzEyLTE0MS4zMTItMjUwLjM2OC0xNDUuNDA4LTQ5LjY2NC0zMC43Mi0xMDcuMDA4LTkuMjE2LTEzMC4wNDggMi41NkwxOTIuNTEyIDI2OC44Yy00LjA5NiAxMi4yODgtMTIuMjg4IDQyLjQ5NiAzLjU4NCA1NS44MDhsMjM1LjUyIDEzNi4xOTJ6Ii8+PHBhdGggZmlsbD0iIzRBOTE5QiIgZD0iTTgzMS40ODggMjk5LjAwOGM0LjA5Ni0xLjAyNCAzOC40LTExLjI2NCA2Ni4wNDggNi4xNDQgNy4xNjggNC42MDggMTcuOTIgMTEuNzc2IDI0LjA2NCAyNC41NzYgMS4wMjQgNS42MzIgNC4wOTYgMTAuNzUyIDQuNjA4IDE2Ljg5NnYyLjA0OGwtMS4wMjQgMzIzLjA3MmMtNS4xMiAzNS4zMjgtMjIuNTI4IDkxLjY0OC03Ny4zMTIgMTI1LjQ0bC01LjEyIDMuNTg0aC0xLjAyNGwtMjYyLjE0NCAxNjUuODg4LTQuNjA4IDAuNTEyYy00LjA5NiAwLjUxMi04LjcwNCAxLjAyNC0xMi44IDEuMDI0LTE1Ljg3MiAwLTMwLjIwOC01LjEyLTQxLjk4NC0xNC44NDgtMjQuNTc2LTIwLjQ4LTMyLjc2OC01NS44MDgtMzUuMzI4LTczLjcyOGwtMS4wMjQtMjUyLjkyOGgxLjUzNmM2LjE0NC05Ni43NjggODguNTc2LTE2NC44NjQgOTYuNzY4LTE3MS4wMDhsLTAuNTEyLTAuNTEyTDgyOS40NCAyOTkuNTJtLTMwMS4wNTYgNTY3LjgwOGMwLjUxMiAxMC4yNCA1LjEyIDQxLjQ3MiAxOS45NjggNTMuNzYgMy4wNzIgMi41NiA3LjY4IDUuNjMyIDE2LjM4NCA1LjEybDI2NC43MDQtMTY3LjkzNmM1Ni4zMi0zOC40IDUzLjc2LTExNS43MTIgNTMuNzYtMTE2LjIyNGwtMC41MTItMzIuMjU2IDEuMDI0LTI1MC4zNjhoLTAuNTEyYy0xLjUzNi0xMi44LTcuMTY4LTE2LjM4NC04LjcwNC0xNy40MDgtOC43MDQtNS42MzItMjMuNTUyLTMuMDcyLTI4LjY3Mi0yLjA0OGwtMjM1LjUyIDE0OC45OTJjLTEuMDI0IDAuNTEyLTgwLjg5NiA2NS4wMjQtODAuODk2IDE0OS41MDRoLTEuNTM2bDAuNTEyIDIyOC44NjR6TTQzNS4yIDI2NC4xOTJjMCAyNy42NDggMzEuNzQ0IDUwLjE3NiA3MS4xNjggNTAuMTc2czcxLjE2OC0yMi41MjggNzEuMTY4LTUwLjE3Ni0zMS43NDQtNTAuMTc2LTcxLjE2OC01MC4xNzZTNDM1LjIgMjM2LjU0NCA0MzUuMiAyNjQuMTkyeiIvPjxwYXRoIGZpbGw9IiM0QTkxOUIiIGQ9Ik02NjMuNTUyIDc4Mi44NDhjMCAzMC43Mi0yMi41MjggNjcuMDcyLTQ5LjY2NCA4MC4zODQtMjcuNjQ4IDEzLjgyNC01MC4xNzYtMC41MTItNTAuMTc2LTMxLjIzMnMyMi41MjgtNjcuMDcyIDUwLjE3Ni04MC4zODRjMjcuMTM2LTEzLjgyNCA0OS42NjQgMCA0OS42NjQgMzEuMjMyek03NjAuMzIgNjAyLjYyNGMwIDMwLjcyLTIyLjUyOCA2Ny4wNzItNDkuNjY0IDgwLjM4NC0yNy42NDggMTMuODI0LTQ5LjY2NC0wLjUxMi00OS42NjQtMzEuMjMyczIyLjUyOC02Ny4wNzIgNDkuNjY0LTgwLjM4NGMyNy4xMzYtMTMuODI0IDQ5LjY2NCAwLjUxMiA0OS42NjQgMzEuMjMyek04NjcuODQgNDI4LjAzMmMwIDMwLjcyLTIyLjUyOCA2Ny4wNzItNDkuNjY0IDgwLjM4NC0yNy42NDggMTMuODI0LTUwLjE3Ni0wLjUxMi01MC4xNzYtMzEuMjMyczIyLjUyOC02Ny4wNzIgNTAuMTc2LTgwLjM4NGMyNy4xMzYtMTMuODI0IDQ5LjY2NCAwIDQ5LjY2NCAzMS4yMzJ6TTI3MC44NDggNTM4LjExMmMwIDMwLjcyLTIyLjAxNiA0MS45ODQtNDguNjQgMjQuNTc2LTI3LjEzNi0xNi44OTYtNDguNjQtNTUuODA4LTQ4LjY0LTg2LjUyOCAwLTMwLjcyIDIyLjAxNi00MS45ODQgNDguNjQtMjQuNTc2IDI2LjYyNCAxNi44OTYgNDguNjQgNTUuODA4IDQ4LjY0IDg2LjUyOHpNNDMyLjEyOCA4MjMuMjk2YzAgMzAuNzItMjIuMDE2IDQxLjk4NC00OC42NCAyNC41NzYtMjYuNjI0LTE3LjQwOC00OC42NC01NS44MDgtNDguNjQtODYuNTI4IDAtMzAuNzIgMjIuMDE2LTQxLjk4NCA0OC42NC0yNC41NzYgMjYuNjI0IDE2Ljg5NiA0OC42NCA1NS44MDggNDguNjQgODYuNTI4eiIvPjwvc3ZnPg==" parent="1" vertex="1">
          <mxGeometry x="84" y="535" width="56" height="56" as="geometry" />
        </mxCell>
        <mxCell id="TGPx2V8O0Z7DVdudsgvW-52" value="&lt;font style=&quot;font-size: 21px;&quot;&gt;pre master key&lt;/font&gt;" style="text;html=1;strokeColor=none;fillColor=none;align=center;verticalAlign=middle;whiteSpace=wrap;rounded=0;fontColor=#4A919B;" parent="1" vertex="1">
          <mxGeometry x="149.5" y="672" width="170" height="30" as="geometry" />
        </mxCell>
        <mxCell id="TGPx2V8O0Z7DVdudsgvW-53" value="" style="shape=image;verticalLabelPosition=bottom;verticalAlign=top;imageAspect=0;aspect=fixed;image=data:image/svg+xml,PHN2ZyB4bWxuczp4bGluaz0iaHR0cDovL3d3dy53My5vcmcvMTk5OS94bGluayIgeG1sbnM9Imh0dHA6Ly93d3cudzMub3JnLzIwMDAvc3ZnIiBoZWlnaHQ9IjIwMCIgd2lkdGg9IjIwMCIgdmVyc2lvbj0iMS4xIiB2aWV3Qm94PSIwIDAgMTAyNCAxMDI0IiBjbGFzcz0iaWNvbiI+PHBhdGggZmlsbD0iIzRBOTE5QiIgZD0iTTQyMS4zNzYgNDgxLjI4czExNy4yNDggMjQuNTc2IDE3NS4xMDQtOC43MDRjMCAwLTg5LjYgNzAuMTQ0LTg5LjYgMTY2LjQgMC41MTItMC41MTItOC4xOTItMTIxLjM0NC04NS41MDQtMTU3LjY5NnpNNDM4Ljc4NCA5NjkuMjE2czY4LjYwOCA2LjY1NiA2OC42MDgtODAuODk2YzAgMCAzLjA3MiA4OC41NzYgNjUuMDI0IDc4LjMzNiAwIDAuNTEyLTUwLjY4OCAyMi4wMTYtMTMzLjYzMiAyLjU2ek0xNjEuMjggMjM4LjA4cy0zMC4yMDggNjUuNTM2IDExLjI2NCA5MS42NDhjMCAwLTY3LjA3Mi0xNy40MDgtODEuNDA4IDM3LjM3NiAwIDAgOC43MDQtODIuOTQ0IDcwLjE0NC0xMjkuMDI0ek04NTcuNiAyMjcuMzI4czQ5LjE1MiA1MC4xNzYgMS4wMjQgODEuNDA4YzAgMCA1OC44OC0xOC40MzIgNjYuNTYgMzYuMzUyIDAgMCA1LjEyLTY5LjYzMi02Ny41ODQtMTE3Ljc2eiIvPjxwYXRoIGZpbGw9IiM0QTkxOUIiIGQ9Ik00NDMuMzkyIDk3MC43NTJjLTUuNjMyIDAtMTAuNzUyLTEuMDI0LTE1LjM2LTMuMDcybC0yNzAuODQ4LTE1Ny4xODQtMS41MzYtMS4wMjRzLTEuMDI0LTEuMDI0LTQuNjA4LTIuNTZjLTUxLjItMjkuMTg0LTYyLjk3Ni05NC4yMDgtNjUuNTM2LTEyMC44MzJWMzg2LjU2YzAtMy4wNzIgMC41MTItNy4xNjggMS4wMjQtMTEuMjY0bDAuNTEyLTMuNTg0IDEuMDI0LTIuNTZjMTkuNDU2LTUwLjY4OCA3Ni44LTUxLjIgMTAzLjkzNi00NC4wMzJsLTEuNTM2IDUuNjMyIDQuMDk2LTYuMTQ0TDQ3Ni4xNiA0ODYuNGwxOC45NDQgMzcuODg4YzIwLjk5MiAzNi44NjQgMjkuMTg0IDc3LjgyNCAzMi43NjggOTkuODR2MjU4LjA0OGMtNC42MDggNTYuMzItMzYuODY0IDc2LjI4OC01NS44MDggODIuOTQ0LTEuMDI0IDAuNTEyLTE1LjM2IDUuNjMyLTI4LjY3MiA1LjYzMnogbS0yNjIuMTQ0LTE5Ni4wOTZsMjYzLjE2OCAxNTIuNTc2YzEyLjI4OC0wLjUxMiAzNi44NjQtNi42NTYgNDAuNDQ4LTQ4LjEyOHYtMjUwLjM2OGMtNC42MDgtMzEuNzQ0LTIwLjk5Mi0xMDMuOTM2LTcyLjE5Mi0xMjhMMzIyLjU2IDQ0NS40NGwxLjUzNiAzLjA3Mi0xNDIuMzM2LTgyLjQzMmMtMi4wNDgtMC41MTItNDAuNDQ4LTkuMjE2LTUyLjczNiAxNS44NzItMC41MTIgMi41Ni0wLjUxMiA0LjYwOC0wLjUxMiA2LjE0NHYyOTQuNGMxLjUzNiAxNi44OTYgOS43MjggNjcuMDcyIDQzLjUyIDg2LjUyOCAzLjU4NCAyLjA0OCA2LjY1NiA0LjA5NiA5LjIxNiA1LjYzMnoiLz48cGF0aCBmaWxsPSIjNEE5MTlCIiBkPSJNODM3LjYzMiAyMTIuOTkyYzYuNjU2IDQuMDk2IDEyLjggNy4xNjggMTguNDMyIDEwLjc1MmwxLjUzNiAxLjAyNCAxLjUzNiAxLjUzNmM1LjEyIDQuMDk2IDEwLjc1MiA5LjIxNiAxNi4zODQgMTUuMzYgNi4xNDQgMTEuNzc2IDUuNjMyIDMzLjI4IDQuNjA4IDQ5LjE1Mi0xLjAyNCAxMi4yODgtNi42NTYgMzAuMjA4LTI2LjYyNCA0NC41NDRsLTEuMDI0IDAuNTEyLTI0Ny44MDggMTU2LjY3MmMtMjYuNjI0IDE0LjMzNi02Mi45NzYgMTguNDMyLTk2LjI1NiAxOC40MzItNDAuOTYgMC03Ny44MjQtNi42NTYtODkuMDg4LTguNzA0bC0zLjA3Mi0wLjUxMi0yNDUuMjQ4LTE0Mi4zMzZjLTM5LjQyNC0yOS42OTYtMjguMTYtODUuNTA0LTE1LjM2LTExMy42NjRsMi41Ni02LjE0NCAyNjMuNjgtMTY2LjkxMmMyOS4xODQtMTQuMzM2IDEwNC40NDgtNDMuMDA4IDE3My4wNTYtMS4wMjQgMy41ODQgMi41NiA1OC4zNjggMzQuMzA0IDExOS4yOTYgNjkuNjMyTTQzMS42MTYgNDYwLjhjNDAuNDQ4IDcuMTY4IDExNC4xNzYgMTMuODI0IDE1Mi41NzYtNi4xNDRsMjQ0LjczNi0xNTUuMTM2YzcuMTY4LTUuNjMyIDguMTkyLTEwLjI0IDguNzA0LTEyLjggMS4wMjQtMTEuMjY0LTkuNzI4LTI2LjYyNC0xNS4zNi0zMi43NjgtNTUuODA4LTMyLjI1Ni0yNDMuNzEyLTE0MS4zMTItMjUwLjM2OC0xNDUuNDA4LTQ5LjY2NC0zMC43Mi0xMDcuMDA4LTkuMjE2LTEzMC4wNDggMi41NkwxOTIuNTEyIDI2OC44Yy00LjA5NiAxMi4yODgtMTIuMjg4IDQyLjQ5NiAzLjU4NCA1NS44MDhsMjM1LjUyIDEzNi4xOTJ6Ii8+PHBhdGggZmlsbD0iIzRBOTE5QiIgZD0iTTgzMS40ODggMjk5LjAwOGM0LjA5Ni0xLjAyNCAzOC40LTExLjI2NCA2Ni4wNDggNi4xNDQgNy4xNjggNC42MDggMTcuOTIgMTEuNzc2IDI0LjA2NCAyNC41NzYgMS4wMjQgNS42MzIgNC4wOTYgMTAuNzUyIDQuNjA4IDE2Ljg5NnYyLjA0OGwtMS4wMjQgMzIzLjA3MmMtNS4xMiAzNS4zMjgtMjIuNTI4IDkxLjY0OC03Ny4zMTIgMTI1LjQ0bC01LjEyIDMuNTg0aC0xLjAyNGwtMjYyLjE0NCAxNjUuODg4LTQuNjA4IDAuNTEyYy00LjA5NiAwLjUxMi04LjcwNCAxLjAyNC0xMi44IDEuMDI0LTE1Ljg3MiAwLTMwLjIwOC01LjEyLTQxLjk4NC0xNC44NDgtMjQuNTc2LTIwLjQ4LTMyLjc2OC01NS44MDgtMzUuMzI4LTczLjcyOGwtMS4wMjQtMjUyLjkyOGgxLjUzNmM2LjE0NC05Ni43NjggODguNTc2LTE2NC44NjQgOTYuNzY4LTE3MS4wMDhsLTAuNTEyLTAuNTEyTDgyOS40NCAyOTkuNTJtLTMwMS4wNTYgNTY3LjgwOGMwLjUxMiAxMC4yNCA1LjEyIDQxLjQ3MiAxOS45NjggNTMuNzYgMy4wNzIgMi41NiA3LjY4IDUuNjMyIDE2LjM4NCA1LjEybDI2NC43MDQtMTY3LjkzNmM1Ni4zMi0zOC40IDUzLjc2LTExNS43MTIgNTMuNzYtMTE2LjIyNGwtMC41MTItMzIuMjU2IDEuMDI0LTI1MC4zNjhoLTAuNTEyYy0xLjUzNi0xMi44LTcuMTY4LTE2LjM4NC04LjcwNC0xNy40MDgtOC43MDQtNS42MzItMjMuNTUyLTMuMDcyLTI4LjY3Mi0yLjA0OGwtMjM1LjUyIDE0OC45OTJjLTEuMDI0IDAuNTEyLTgwLjg5NiA2NS4wMjQtODAuODk2IDE0OS41MDRoLTEuNTM2bDAuNTEyIDIyOC44NjR6TTQzNS4yIDI2NC4xOTJjMCAyNy42NDggMzEuNzQ0IDUwLjE3NiA3MS4xNjggNTAuMTc2czcxLjE2OC0yMi41MjggNzEuMTY4LTUwLjE3Ni0zMS43NDQtNTAuMTc2LTcxLjE2OC01MC4xNzZTNDM1LjIgMjM2LjU0NCA0MzUuMiAyNjQuMTkyeiIvPjxwYXRoIGZpbGw9IiM0QTkxOUIiIGQ9Ik02NjMuNTUyIDc4Mi44NDhjMCAzMC43Mi0yMi41MjggNjcuMDcyLTQ5LjY2NCA4MC4zODQtMjcuNjQ4IDEzLjgyNC01MC4xNzYtMC41MTItNTAuMTc2LTMxLjIzMnMyMi41MjgtNjcuMDcyIDUwLjE3Ni04MC4zODRjMjcuMTM2LTEzLjgyNCA0OS42NjQgMCA0OS42NjQgMzEuMjMyek03NjAuMzIgNjAyLjYyNGMwIDMwLjcyLTIyLjUyOCA2Ny4wNzItNDkuNjY0IDgwLjM4NC0yNy42NDggMTMuODI0LTQ5LjY2NC0wLjUxMi00OS42NjQtMzEuMjMyczIyLjUyOC02Ny4wNzIgNDkuNjY0LTgwLjM4NGMyNy4xMzYtMTMuODI0IDQ5LjY2NCAwLjUxMiA0OS42NjQgMzEuMjMyek04NjcuODQgNDI4LjAzMmMwIDMwLjcyLTIyLjUyOCA2Ny4wNzItNDkuNjY0IDgwLjM4NC0yNy42NDggMTMuODI0LTUwLjE3Ni0wLjUxMi01MC4xNzYtMzEuMjMyczIyLjUyOC02Ny4wNzIgNTAuMTc2LTgwLjM4NGMyNy4xMzYtMTMuODI0IDQ5LjY2NCAwIDQ5LjY2NCAzMS4yMzJ6TTI3MC44NDggNTM4LjExMmMwIDMwLjcyLTIyLjAxNiA0MS45ODQtNDguNjQgMjQuNTc2LTI3LjEzNi0xNi44OTYtNDguNjQtNTUuODA4LTQ4LjY0LTg2LjUyOCAwLTMwLjcyIDIyLjAxNi00MS45ODQgNDguNjQtMjQuNTc2IDI2LjYyNCAxNi44OTYgNDguNjQgNTUuODA4IDQ4LjY0IDg2LjUyOHpNNDMyLjEyOCA4MjMuMjk2YzAgMzAuNzItMjIuMDE2IDQxLjk4NC00OC42NCAyNC41NzYtMjYuNjI0LTE3LjQwOC00OC42NC01NS44MDgtNDguNjQtODYuNTI4IDAtMzAuNzIgMjIuMDE2LTQxLjk4NCA0OC42NC0yNC41NzYgMjYuNjI0IDE2Ljg5NiA0OC42NCA1NS44MDggNDguNjQgODYuNTI4eiIvPjwvc3ZnPg==" parent="1" vertex="1">
          <mxGeometry x="84" y="659" width="56" height="56" as="geometry" />
        </mxCell>
        <mxCell id="TGPx2V8O0Z7DVdudsgvW-67" value="" style="shape=image;verticalLabelPosition=bottom;verticalAlign=top;imageAspect=0;aspect=fixed;image=data:image/svg+xml,PHN2ZyB4bWxuczp4bGluaz0iaHR0cDovL3d3dy53My5vcmcvMTk5OS94bGluayIgeG1sbnM9Imh0dHA6Ly93d3cudzMub3JnLzIwMDAvc3ZnIiBoZWlnaHQ9IjIwMCIgd2lkdGg9IjIwMCIgdmVyc2lvbj0iMS4xIiB2aWV3Qm94PSIwIDAgMTAyNCAxMDI0IiBjbGFzcz0iaWNvbiI+PHBhdGggZmlsbD0iIzUzNUU4MCIgZD0iTTQyMS4zNzYgNDgxLjI4czExNy4yNDggMjQuNTc2IDE3NS4xMDQtOC43MDRjMCAwLTg5LjYgNzAuMTQ0LTg5LjYgMTY2LjQgMC41MTItMC41MTItOC4xOTItMTIxLjM0NC04NS41MDQtMTU3LjY5NnpNNDM4Ljc4NCA5NjkuMjE2czY4LjYwOCA2LjY1NiA2OC42MDgtODAuODk2YzAgMCAzLjA3MiA4OC41NzYgNjUuMDI0IDc4LjMzNiAwIDAuNTEyLTUwLjY4OCAyMi4wMTYtMTMzLjYzMiAyLjU2ek0xNjEuMjggMjM4LjA4cy0zMC4yMDggNjUuNTM2IDExLjI2NCA5MS42NDhjMCAwLTY3LjA3Mi0xNy40MDgtODEuNDA4IDM3LjM3NiAwIDAgOC43MDQtODIuOTQ0IDcwLjE0NC0xMjkuMDI0ek04NTcuNiAyMjcuMzI4czQ5LjE1MiA1MC4xNzYgMS4wMjQgODEuNDA4YzAgMCA1OC44OC0xOC40MzIgNjYuNTYgMzYuMzUyIDAgMCA1LjEyLTY5LjYzMi02Ny41ODQtMTE3Ljc2eiIvPjxwYXRoIGZpbGw9IiM1MzVFODAiIGQ9Ik00NDMuMzkyIDk3MC43NTJjLTUuNjMyIDAtMTAuNzUyLTEuMDI0LTE1LjM2LTMuMDcybC0yNzAuODQ4LTE1Ny4xODQtMS41MzYtMS4wMjRzLTEuMDI0LTEuMDI0LTQuNjA4LTIuNTZjLTUxLjItMjkuMTg0LTYyLjk3Ni05NC4yMDgtNjUuNTM2LTEyMC44MzJWMzg2LjU2YzAtMy4wNzIgMC41MTItNy4xNjggMS4wMjQtMTEuMjY0bDAuNTEyLTMuNTg0IDEuMDI0LTIuNTZjMTkuNDU2LTUwLjY4OCA3Ni44LTUxLjIgMTAzLjkzNi00NC4wMzJsLTEuNTM2IDUuNjMyIDQuMDk2LTYuMTQ0TDQ3Ni4xNiA0ODYuNGwxOC45NDQgMzcuODg4YzIwLjk5MiAzNi44NjQgMjkuMTg0IDc3LjgyNCAzMi43NjggOTkuODR2MjU4LjA0OGMtNC42MDggNTYuMzItMzYuODY0IDc2LjI4OC01NS44MDggODIuOTQ0LTEuMDI0IDAuNTEyLTE1LjM2IDUuNjMyLTI4LjY3MiA1LjYzMnogbS0yNjIuMTQ0LTE5Ni4wOTZsMjYzLjE2OCAxNTIuNTc2YzEyLjI4OC0wLjUxMiAzNi44NjQtNi42NTYgNDAuNDQ4LTQ4LjEyOHYtMjUwLjM2OGMtNC42MDgtMzEuNzQ0LTIwLjk5Mi0xMDMuOTM2LTcyLjE5Mi0xMjhMMzIyLjU2IDQ0NS40NGwxLjUzNiAzLjA3Mi0xNDIuMzM2LTgyLjQzMmMtMi4wNDgtMC41MTItNDAuNDQ4LTkuMjE2LTUyLjczNiAxNS44NzItMC41MTIgMi41Ni0wLjUxMiA0LjYwOC0wLjUxMiA2LjE0NHYyOTQuNGMxLjUzNiAxNi44OTYgOS43MjggNjcuMDcyIDQzLjUyIDg2LjUyOCAzLjU4NCAyLjA0OCA2LjY1NiA0LjA5NiA5LjIxNiA1LjYzMnoiLz48cGF0aCBmaWxsPSIjNTM1RTgwIiBkPSJNODM3LjYzMiAyMTIuOTkyYzYuNjU2IDQuMDk2IDEyLjggNy4xNjggMTguNDMyIDEwLjc1MmwxLjUzNiAxLjAyNCAxLjUzNiAxLjUzNmM1LjEyIDQuMDk2IDEwLjc1MiA5LjIxNiAxNi4zODQgMTUuMzYgNi4xNDQgMTEuNzc2IDUuNjMyIDMzLjI4IDQuNjA4IDQ5LjE1Mi0xLjAyNCAxMi4yODgtNi42NTYgMzAuMjA4LTI2LjYyNCA0NC41NDRsLTEuMDI0IDAuNTEyLTI0Ny44MDggMTU2LjY3MmMtMjYuNjI0IDE0LjMzNi02Mi45NzYgMTguNDMyLTk2LjI1NiAxOC40MzItNDAuOTYgMC03Ny44MjQtNi42NTYtODkuMDg4LTguNzA0bC0zLjA3Mi0wLjUxMi0yNDUuMjQ4LTE0Mi4zMzZjLTM5LjQyNC0yOS42OTYtMjguMTYtODUuNTA0LTE1LjM2LTExMy42NjRsMi41Ni02LjE0NCAyNjMuNjgtMTY2LjkxMmMyOS4xODQtMTQuMzM2IDEwNC40NDgtNDMuMDA4IDE3My4wNTYtMS4wMjQgMy41ODQgMi41NiA1OC4zNjggMzQuMzA0IDExOS4yOTYgNjkuNjMyTTQzMS42MTYgNDYwLjhjNDAuNDQ4IDcuMTY4IDExNC4xNzYgMTMuODI0IDE1Mi41NzYtNi4xNDRsMjQ0LjczNi0xNTUuMTM2YzcuMTY4LTUuNjMyIDguMTkyLTEwLjI0IDguNzA0LTEyLjggMS4wMjQtMTEuMjY0LTkuNzI4LTI2LjYyNC0xNS4zNi0zMi43NjgtNTUuODA4LTMyLjI1Ni0yNDMuNzEyLTE0MS4zMTItMjUwLjM2OC0xNDUuNDA4LTQ5LjY2NC0zMC43Mi0xMDcuMDA4LTkuMjE2LTEzMC4wNDggMi41NkwxOTIuNTEyIDI2OC44Yy00LjA5NiAxMi4yODgtMTIuMjg4IDQyLjQ5NiAzLjU4NCA1NS44MDhsMjM1LjUyIDEzNi4xOTJ6Ii8+PHBhdGggZmlsbD0iIzUzNUU4MCIgZD0iTTgzMS40ODggMjk5LjAwOGM0LjA5Ni0xLjAyNCAzOC40LTExLjI2NCA2Ni4wNDggNi4xNDQgNy4xNjggNC42MDggMTcuOTIgMTEuNzc2IDI0LjA2NCAyNC41NzYgMS4wMjQgNS42MzIgNC4wOTYgMTAuNzUyIDQuNjA4IDE2Ljg5NnYyLjA0OGwtMS4wMjQgMzIzLjA3MmMtNS4xMiAzNS4zMjgtMjIuNTI4IDkxLjY0OC03Ny4zMTIgMTI1LjQ0bC01LjEyIDMuNTg0aC0xLjAyNGwtMjYyLjE0NCAxNjUuODg4LTQuNjA4IDAuNTEyYy00LjA5NiAwLjUxMi04LjcwNCAxLjAyNC0xMi44IDEuMDI0LTE1Ljg3MiAwLTMwLjIwOC01LjEyLTQxLjk4NC0xNC44NDgtMjQuNTc2LTIwLjQ4LTMyLjc2OC01NS44MDgtMzUuMzI4LTczLjcyOGwtMS4wMjQtMjUyLjkyOGgxLjUzNmM2LjE0NC05Ni43NjggODguNTc2LTE2NC44NjQgOTYuNzY4LTE3MS4wMDhsLTAuNTEyLTAuNTEyTDgyOS40NCAyOTkuNTJtLTMwMS4wNTYgNTY3LjgwOGMwLjUxMiAxMC4yNCA1LjEyIDQxLjQ3MiAxOS45NjggNTMuNzYgMy4wNzIgMi41NiA3LjY4IDUuNjMyIDE2LjM4NCA1LjEybDI2NC43MDQtMTY3LjkzNmM1Ni4zMi0zOC40IDUzLjc2LTExNS43MTIgNTMuNzYtMTE2LjIyNGwtMC41MTItMzIuMjU2IDEuMDI0LTI1MC4zNjhoLTAuNTEyYy0xLjUzNi0xMi44LTcuMTY4LTE2LjM4NC04LjcwNC0xNy40MDgtOC43MDQtNS42MzItMjMuNTUyLTMuMDcyLTI4LjY3Mi0yLjA0OGwtMjM1LjUyIDE0OC45OTJjLTEuMDI0IDAuNTEyLTgwLjg5NiA2NS4wMjQtODAuODk2IDE0OS41MDRoLTEuNTM2bDAuNTEyIDIyOC44NjR6TTQzNS4yIDI2NC4xOTJjMCAyNy42NDggMzEuNzQ0IDUwLjE3NiA3MS4xNjggNTAuMTc2czcxLjE2OC0yMi41MjggNzEuMTY4LTUwLjE3Ni0zMS43NDQtNTAuMTc2LTcxLjE2OC01MC4xNzZTNDM1LjIgMjM2LjU0NCA0MzUuMiAyNjQuMTkyeiIvPjxwYXRoIGZpbGw9IiM1MzVFODAiIGQ9Ik02NjMuNTUyIDc4Mi44NDhjMCAzMC43Mi0yMi41MjggNjcuMDcyLTQ5LjY2NCA4MC4zODQtMjcuNjQ4IDEzLjgyNC01MC4xNzYtMC41MTItNTAuMTc2LTMxLjIzMnMyMi41MjgtNjcuMDcyIDUwLjE3Ni04MC4zODRjMjcuMTM2LTEzLjgyNCA0OS42NjQgMCA0OS42NjQgMzEuMjMyek03NjAuMzIgNjAyLjYyNGMwIDMwLjcyLTIyLjUyOCA2Ny4wNzItNDkuNjY0IDgwLjM4NC0yNy42NDggMTMuODI0LTQ5LjY2NC0wLjUxMi00OS42NjQtMzEuMjMyczIyLjUyOC02Ny4wNzIgNDkuNjY0LTgwLjM4NGMyNy4xMzYtMTMuODI0IDQ5LjY2NCAwLjUxMiA0OS42NjQgMzEuMjMyek04NjcuODQgNDI4LjAzMmMwIDMwLjcyLTIyLjUyOCA2Ny4wNzItNDkuNjY0IDgwLjM4NC0yNy42NDggMTMuODI0LTUwLjE3Ni0wLjUxMi01MC4xNzYtMzEuMjMyczIyLjUyOC02Ny4wNzIgNTAuMTc2LTgwLjM4NGMyNy4xMzYtMTMuODI0IDQ5LjY2NCAwIDQ5LjY2NCAzMS4yMzJ6TTI3MC44NDggNTM4LjExMmMwIDMwLjcyLTIyLjAxNiA0MS45ODQtNDguNjQgMjQuNTc2LTI3LjEzNi0xNi44OTYtNDguNjQtNTUuODA4LTQ4LjY0LTg2LjUyOCAwLTMwLjcyIDIyLjAxNi00MS45ODQgNDguNjQtMjQuNTc2IDI2LjYyNCAxNi44OTYgNDguNjQgNTUuODA4IDQ4LjY0IDg2LjUyOHpNNDMyLjEyOCA4MjMuMjk2YzAgMzAuNzItMjIuMDE2IDQxLjk4NC00OC42NCAyNC41NzYtMjYuNjI0LTE3LjQwOC00OC42NC01NS44MDgtNDguNjQtODYuNTI4IDAtMzAuNzIgMjIuMDE2LTQxLjk4NCA0OC42NC0yNC41NzYgMjYuNjI0IDE2Ljg5NiA0OC42NCA1NS44MDggNDguNjQgODYuNTI4eiIvPjwvc3ZnPg==" parent="1" vertex="1">
          <mxGeometry x="84" y="599" width="56" height="56" as="geometry" />
        </mxCell>
        <mxCell id="TGPx2V8O0Z7DVdudsgvW-68" value="&lt;font color=&quot;#535e80&quot; style=&quot;font-size: 21px;&quot;&gt;server random&lt;/font&gt;" style="text;html=1;strokeColor=none;fillColor=none;align=center;verticalAlign=middle;whiteSpace=wrap;rounded=0;fontColor=#4A919B;" parent="1" vertex="1">
          <mxGeometry x="117.5" y="612" width="230" height="30" as="geometry" />
        </mxCell>
        <mxCell id="TGPx2V8O0Z7DVdudsgvW-93" value="" style="shape=image;verticalLabelPosition=bottom;labelBackgroundColor=default;verticalAlign=top;aspect=fixed;imageAspect=0;image=data:image/svg+xml,PHN2ZyB4bWxuczp4bGluaz0iaHR0cDovL3d3dy53My5vcmcvMTk5OS94bGluayIgeG1sbnM9Imh0dHA6Ly93d3cudzMub3JnLzIwMDAvc3ZnIiBoZWlnaHQ9IjIwMCIgd2lkdGg9IjIwMCIgdmVyc2lvbj0iMS4xIiB2aWV3Qm94PSIwIDAgMTAyNCAxMDI0IiBjbGFzcz0iaWNvbiI+PHBhdGggZmlsbD0iI0YxOUM5OSIgZD0iTTQ0Ni42ODA0MDcgNTEzLjcwNDcyNmgxMzYuMDc4NzM5djUxMC4yOTUyNzRoLTEzNi4wNzg3Mzl6Ii8+PHBhdGggZmlsbD0iI0YxOUM5OSIgZD0iTTUzMi40MTAwMTMgNjY2Ljc5MzMwOGgxMTUuNjY2OTI4djEzNi4wNzg3NEg1MzIuNDEwMDEzek01MzIuNDEwMDEzIDg0My42OTU2N2gxNDkuNjg2NjEzdjEzNi4wNzg3NEg1MzIuNDEwMDEzek01MTEuOTk4MjAyIDU4NS4xNDYwNjVBMjkwLjUyODEwOSAyOTAuNTI4MTA5IDAgMCAxIDIxOS40Mjg5MTIgMjkyLjU3Njc3NSAyOTAuNTI4MTA5IDI5MC41MjgxMDkgMCAwIDEgNTExLjk5ODIwMiAwLjAwNzQ4NGEyOTAuNTI4MTA5IDI5MC41MjgxMDkgMCAwIDEgMjkyLjU2OTI5IDI5Mi41NjkyOTEgMjkwLjUyODEwOSAyOTAuNTI4MTA5IDAgMCAxLTI5Mi41NjkyOSAyOTIuNTY5Mjl6IG0wLTQ0OS4wNTk4NDFBMTUzLjc2ODk3NiAxNTMuNzY4OTc2IDAgMCAwIDM1NS41MDc2NTEgMjkyLjU3Njc3NWExNTMuNzY4OTc2IDE1My43Njg5NzYgMCAwIDAgMTU2LjQ5MDU1MSAxNTYuNDkwNTUgMTUzLjc2ODk3NiAxNTMuNzY4OTc2IDAgMCAwIDE1Ni40OTA1NS0xNTYuNDkwNTVBMTUzLjc2ODk3NiAxNTMuNzY4OTc2IDAgMCAwIDUxMS45OTgyMDIgMTM2LjA4NjIyNHoiLz48L3N2Zz4=;" parent="1" vertex="1">
          <mxGeometry x="700.5" y="582.25" width="89.5" height="89.5" as="geometry" />
        </mxCell>
        <mxCell id="krH5sKiptQ8hAGFtytT--2" value="" style="shape=image;verticalLabelPosition=bottom;verticalAlign=top;imageAspect=0;aspect=fixed;image=data:image/svg+xml,PHN2ZyB4bWxuczp4bGluaz0iaHR0cDovL3d3dy53My5vcmcvMTk5OS94bGluayIgeG1sbnM9Imh0dHA6Ly93d3cudzMub3JnLzIwMDAvc3ZnIiBoZWlnaHQ9IjIwMCIgd2lkdGg9IjI1MCIgdmVyc2lvbj0iMS4xIiB2aWV3Qm94PSIwIDAgMTI4MCAxMDI0IiBjbGFzcz0iaWNvbiI+PGRlZnM+PHN0eWxlIHR5cGU9InRleHQvY3NzIj5AZm9udC1mYWNlIHsgZm9udC1mYW1pbHk6IGZlZWRiYWNrLWljb25mb250OyBzcmM6IHVybCgiLy9hdC5hbGljZG4uY29tL3QvZm9udF8xMDMxMTU4X3U2OXc4eWh4ZHUud29mZjI/dD0xNjMwMDMzNzU5OTQ0IikgZm9ybWF0KCJ3b2ZmMiIpLCB1cmwoIi8vYXQuYWxpY2RuLmNvbS90L2ZvbnRfMTAzMTE1OF91Njl3OHloeGR1LndvZmY/dD0xNjMwMDMzNzU5OTQ0IikgZm9ybWF0KCJ3b2ZmIiksIHVybCgiLy9hdC5hbGljZG4uY29tL3QvZm9udF8xMDMxMTU4X3U2OXc4eWh4ZHUudHRmP3Q9MTYzMDAzMzc1OTk0NCIpIGZvcm1hdCgidHJ1ZXR5cGUiKTsgfSYjeGE7PC9zdHlsZT48L2RlZnM+PHBhdGggZmlsbD0iIzRBOTE5QiIgZD0iTTU3Ny40NTAyNTYgNjM5Ljk4OTJjMC0xMDQuNjc4MjM0IDMzLjkxOTQyOC0yMDYuNDM2NTE2IDk2LjAxODM3OS0yODkuODk1MTA4IDEwLjMzOTgyNi0xMy44Nzk3NjYgOC44OTk4NS0zMy4wNzk0NDItNC4yOTk5MjctNDQuMjc5MjUzbC00OS4zNzkxNjctNDEuOTU5MjkyYy0xMy45OTk3NjQtMTEuODk5Nzk5LTM1LjY1OTM5OC0xMC4xNzk4MjgtNDYuNzU5MjExIDQuNDU5OTI1QzQ5Mi4xNzE2OTUgMzc0LjgzMzY3NSA0NDcuOTkyNDQgNTA1LjU1MTQ2OSA0NDcuOTkyNDQgNjM5Ljk4OTJjMCAxMzQuNDU3NzMxIDQ0LjE3OTI1NCAyNjUuMTc1NTI1IDEyNS4wMzc4OSAzNzEuNjczNzI4IDExLjExOTgxMiAxNC42Mzk3NTMgMzIuNzU5NDQ3IDE2LjM1OTcyNCA0Ni43NTkyMTEgNC40NTk5MjVsNDkuMzc5MTY3LTQxLjk3OTI5MmMxMy4xNzk3NzgtMTEuMjE5ODExIDE0LjYxOTc1My0zMC4zOTk0ODcgNC4yOTk5MjctNDQuMjc5MjUyLTYyLjExODk1Mi04My40MTg1OTItOTYuMDE4MzgtMTg1LjE5Njg3NS05Ni4wMTgzNzktMjg5Ljg3NTEwOXpNNDQ3Ljk5MjQ0IDMxLjk5OTQ2YzAtMTcuNjc5NzAyLTE0LjMxOTc1OC0zMS45OTk0Ni0zMS45OTk0Ni0zMS45OTk0NmgtOTUuOTk4MzhDMjA1LjExNjUzOSAwIDExMS45OTgxMSA5My4xMTg0MjkgMTExLjk5ODExIDIwNy45OTY0OXYxMjcuOTk3ODRIMzEuOTk5NDZjLTE3LjY3OTcwMiAwLTMxLjk5OTQ2IDE0LjMxOTc1OC0zMS45OTk0NiAzMS45OTk0NnY5NS45OTgzOGMwIDE3LjY3OTcwMiAxNC4zMTk3NTggMzEuOTk5NDYgMzEuOTk5NDYgMzEuOTk5NDZoNzkuOTk4NjV2MjU1Ljk5NTY4YzAgMjYuMzk5NTU1LTIxLjU5OTYzNiA0Ny45OTkxOS00Ny45OTkxOSA0Ny45OTkxOUgzMS45OTk0NmMtMTcuNjc5NzAyIDAtMzEuOTk5NDYgMTQuMzE5NzU4LTMxLjk5OTQ2IDMxLjk5OTQ2djk1Ljk5ODM4YzAgMTcuNjc5NzAyIDE0LjMxOTc1OCAzMS45OTk0NiAzMS45OTk0NiAzMS45OTk0NmgzMS45OTk0NmMxMTQuODc4MDYxIDAgMjA3Ljk5NjQ5LTkzLjExODQyOSAyMDcuOTk2NDktMjA3Ljk5NjQ5VjQ5NS45OTE2M2g3OS45OTg2NWMxNy42Nzk3MDIgMCAzMS45OTk0Ni0xNC4zMTk3NTggMzEuOTk5NDYtMzEuOTk5NDZ2LTk1Ljk5ODM4YzAtMTcuNjc5NzAyLTE0LjMxOTc1OC0zMS45OTk0Ni0zMS45OTk0Ni0zMS45OTk0NmgtNzkuOTk4NjV2LTEyNy45OTc4NGMwLTI2LjM5OTU1NSAyMS41OTk2MzYtNDcuOTk5MTkgNDcuOTk5MTktNDcuOTk5MTloOTUuOTk4MzhjMTcuNjc5NzAyIDAgMzEuOTk5NDYtMTQuMzE5NzU4IDMxLjk5OTQ2LTMxLjk5OTQ2VjMxLjk5OTQ2eiBtNzA2Ljk0ODA3IDIzNi4zMTYwMTJjLTExLjExOTgxMi0xNC42Mzk3NTMtMzIuNzU5NDQ3LTE2LjM1OTcyNC00Ni43NTkyMTEtNC40NTk5MjVsLTQ5LjM3OTE2NiA0MS45NTkyOTJjLTEzLjE3OTc3OCAxMS4yMTk4MTEtMTQuNjE5NzUzIDMwLjM5OTQ4Ny00LjI5OTkyOCA0NC4yNzkyNTMgNjIuMDk4OTUyIDgzLjQxODU5MiA5Ni4wMTgzOCAxODUuMjE2ODc0IDk2LjAxODM4IDI4OS44OTUxMDggMCAxMDQuNjc4MjM0LTMzLjkxOTQyOCAyMDYuNDU2NTE2LTk2LjAxODM4IDI4OS44OTUxMDgtMTAuMzM5ODI2IDEzLjg3OTc2Ni04Ljg5OTg1IDMzLjA3OTQ0MiA0LjI5OTkyOCA0NC4yNzkyNTNsNDkuMzc5MTY2IDQxLjk3OTI5MmMxMy45OTk3NjQgMTEuODk5Nzk5IDM1LjY1OTM5OCAxMC4xNzk4MjggNDYuNzU5MjExLTQuNDU5OTI1QzEyMzUuNzk5MTQ2IDkwNS4xMjQ3MjYgMTI3OS45Nzg0IDc3NC40MjY5MzIgMTI3OS45Nzg0IDYzOS45ODkyYzAtMTM0LjQ1NzczMS00NC4xNzkyNTQtMjY1LjE3NTUyNS0xMjUuMDM3ODktMzcxLjY3MzcyOHogbS0xMDguMzM4MTcxIDQ2My43OTIxNzRMOTU0LjQ4Mzg5MyA2MzkuOTg5Mmw5Mi4xMTg0NDYtOTIuMTE4NDQ1YzEyLjQ5OTc4OS0xMi40OTk3ODkgMTIuNDk5Nzg5LTMyLjc1OTQ0NyAwLTQ1LjI1OTIzN2wtNDUuMjM5MjM3LTQ1LjIzOTIzNmMtMTIuNDk5Nzg5LTEyLjQ5OTc4OS0zMi43NTk0NDctMTIuNDk5Nzg5LTQ1LjI1OTIzNiAwTDg2My45ODU0MiA1NDkuNDkwNzI3bC05Mi4xMTg0NDUtOTIuMTE4NDQ1Yy0xMi40OTk3ODktMTIuNDk5Nzg5LTMyLjc1OTQ0Ny0xMi40OTk3ODktNDUuMjU5MjM3IDBsLTQ1LjIzOTIzNiA0NS4yMzkyMzZjLTEyLjQ5OTc4OSAxMi40OTk3ODktMTIuNDk5Nzg5IDMyLjc1OTQ0NyAwIDQ1LjI1OTIzN0w3NzMuNDg2OTQ3IDYzOS45ODkybC05Mi4xMTg0NDUgOTIuMTE4NDQ2Yy0xMi40OTk3ODkgMTIuNDk5Nzg5LTEyLjQ5OTc4OSAzMi43NTk0NDcgMCA0NS4yNTkyMzZsNDUuMjM5MjM2IDQ1LjIzOTIzN2MxMi40OTk3ODkgMTIuNDk5Nzg5IDMyLjc1OTQ0NyAxMi40OTk3ODkgNDUuMjU5MjM3IDBMODYzLjk4NTQyIDczMC40ODc2NzNsOTIuMTE4NDQ2IDkyLjExODQ0NmMxMi40OTk3ODkgMTIuNDk5Nzg5IDMyLjc1OTQ0NyAxMi40OTk3ODkgNDUuMjU5MjM2IDBsNDUuMjM5MjM3LTQ1LjIzOTIzN2MxMi40OTk3ODktMTIuNDk5Nzg5IDEyLjQ5OTc4OS0zMi43NTk0NDcgMC00NS4yNTkyMzZ6Ii8+PC9zdmc+;fontSize=21;" parent="1" vertex="1">
          <mxGeometry x="432.5" y="574" width="139" height="111.2" as="geometry" />
        </mxCell>
        <mxCell id="krH5sKiptQ8hAGFtytT--3" value="" style="shape=flexArrow;endArrow=classic;html=1;rounded=0;fontSize=19;fontColor=#FFFFFF;strokeColor=none;fillColor=#FDD276;" parent="1" edge="1">
          <mxGeometry width="50" height="50" relative="1" as="geometry">
            <mxPoint x="339.5" y="627" as="sourcePoint" />
            <mxPoint x="406.5" y="627" as="targetPoint" />
          </mxGeometry>
        </mxCell>
        <mxCell id="krH5sKiptQ8hAGFtytT--5" value="" style="shape=flexArrow;endArrow=classic;html=1;rounded=0;fontSize=19;fontColor=#FFFFFF;strokeColor=none;fillColor=#FDD276;" parent="1" edge="1">
          <mxGeometry width="50" height="50" relative="1" as="geometry">
            <mxPoint x="595.9999999999998" y="626.5700000000002" as="sourcePoint" />
            <mxPoint x="663" y="626.5700000000002" as="targetPoint" />
          </mxGeometry>
        </mxCell>
      </root>
    </mxGraphModel>
  </diagram>
</mxfile>
